<svg width="34" height="34" viewBox="0 0 34 34" fill="none" xmlns="http://www.w3.org/2000/svg">
<path d="M17 3.07229C21.506 3.07229 22.1205 3.07229 23.9639 3.07229C25.6024 3.07229 26.4217 3.48193 27.0361 3.68675C27.8554 4.09639 28.4699 4.30121 29.0843 4.91566C29.6988 5.53012 30.1084 6.14458 30.3133 6.96386C30.5181 7.57832 30.7229 8.39759 30.9277 10.0361C30.9277 11.8795 30.9277 12.2892 30.9277 17C30.9277 21.7108 30.9277 22.1205 30.9277 23.9639C30.9277 25.6024 30.5181 26.4217 30.3133 27.0361C29.9036 27.8554 29.6988 28.4699 29.0843 29.0843C28.4699 29.6988 27.8554 30.1084 27.0361 30.3133C26.4217 30.5181 25.6024 30.7229 23.9639 30.9277C22.1205 30.9277 21.7108 30.9277 17 30.9277C12.2892 30.9277 11.8795 30.9277 10.0361 30.9277C8.39759 30.9277 7.57832 30.5181 6.96386 30.3133C6.14458 29.9036 5.53012 29.6988 4.91566 29.0843C4.30121 28.4699 3.89157 27.8554 3.68675 27.0361C3.48193 26.4217 3.27711 25.6024 3.07229 23.9639C3.07229 22.1205 3.07229 21.7108 3.07229 17C3.07229 12.2892 3.07229 11.8795 3.07229 10.0361C3.07229 8.39759 3.48193 7.57832 3.68675 6.96386C4.09639 6.14458 4.30121 5.53012 4.91566 4.91566C5.53012 4.30121 6.14458 3.89157 6.96386 3.68675C7.57832 3.48193 8.39759 3.27711 10.0361 3.07229C11.8795 3.07229 12.494 3.07229 17 3.07229ZM17 0C12.2892 0 11.8795 0 10.0361 0C8.19277 0 6.96386 0.40964 5.93976 0.819278C4.91566 1.22892 3.89157 1.84337 2.86747 2.86747C1.84337 3.89157 1.43374 4.71084 0.819278 5.93976C0.40964 6.96386 0.204819 8.19277 0 10.0361C0 11.8795 0 12.494 0 17C0 21.7108 0 22.1205 0 23.9639C0 25.8072 0.40964 27.0361 0.819278 28.0602C1.22892 29.0843 1.84337 30.1084 2.86747 31.1325C3.89157 32.1566 4.71084 32.5663 5.93976 33.1807C6.96386 33.5904 8.19277 33.7952 10.0361 34C11.8795 34 12.494 34 17 34C21.506 34 22.1205 34 23.9639 34C25.8072 34 27.0361 33.5904 28.0602 33.1807C29.0843 32.7711 30.1084 32.1566 31.1325 31.1325C32.1566 30.1084 32.5663 29.2892 33.1807 28.0602C33.5904 27.0361 33.7952 25.8072 34 23.9639C34 22.1205 34 21.506 34 17C34 12.494 34 11.8795 34 10.0361C34 8.19277 33.5904 6.96386 33.1807 5.93976C32.7711 4.91566 32.1566 3.89157 31.1325 2.86747C30.1084 1.84337 29.2892 1.43374 28.0602 0.819278C27.0361 0.40964 25.8072 0.204819 23.9639 0C22.1205 0 21.7108 0 17 0Z" fill="black"/>
<path d="M17 8.19277C12.0843 8.19277 8.19277 12.0843 8.19277 17C8.19277 21.9157 12.0843 25.8072 17 25.8072C21.9157 25.8072 25.8072 21.9157 25.8072 17C25.8072 12.0843 21.9157 8.19277 17 8.19277ZM17 22.7349C13.9277 22.7349 11.2651 20.2771 11.2651 17C11.2651 13.9277 13.7229 11.2651 17 11.2651C20.0723 11.2651 22.7349 13.7229 22.7349 17C22.7349 20.0723 20.0723 22.7349 17 22.7349Z" fill="black"/>
<path d="M26.0121 10.0361C27.1432 10.0361 28.0602 9.11914 28.0602 7.98795C28.0602 6.85677 27.1432 5.93976 26.0121 5.93976C24.8809 5.93976 23.9639 6.85677 23.9639 7.98795C23.9639 9.11914 24.8809 10.0361 26.0121 10.0361Z" fill="black"/>
</svg>
