<svg width="21" height="22" viewBox="0 0 21 22" fill="none" xmlns="http://www.w3.org/2000/svg">
<path d="M10.5 0C4.704 0 0 4.928 0 11C0 17.072 4.704 22 10.5 22C16.275 22 21 17.072 21 11C21 4.928 16.275 0 10.5 0ZM17.43 5.06C18.69 6.666 19.425 8.69 19.467 10.912C19.173 10.846 16.212 10.23 13.23 10.604C13.167 10.45 13.104 10.274 13.041 10.12C12.852 9.658 12.663 9.196 12.453 8.756C15.729 7.37 17.241 5.324 17.43 5.06ZM10.5 1.628C12.768 1.628 14.868 2.53 16.443 3.982C16.275 4.224 14.931 6.116 11.739 7.37C10.269 4.532 8.631 2.222 8.4 1.87C9.072 1.716 9.765 1.628 10.5 1.628ZM6.678 2.508C6.909 2.838 8.505 5.17 9.996 7.942C5.796 9.108 2.1 9.086 1.701 9.086C2.31 6.16 4.179 3.74 6.678 2.508ZM1.533 11.022C1.533 10.934 1.533 10.824 1.533 10.736C1.911 10.758 6.279 10.802 10.752 9.394C11.004 9.922 11.256 10.45 11.487 11C11.382 11.044 11.256 11.066 11.13 11.11C6.51 12.672 4.053 16.94 3.843 17.292C2.394 15.62 1.533 13.42 1.533 11.022ZM10.5 20.394C8.421 20.394 6.51 19.646 4.998 18.414C5.166 18.062 6.972 14.388 12.033 12.54C12.054 12.518 12.075 12.518 12.096 12.518C13.356 15.95 13.881 18.81 14.007 19.646C12.936 20.13 11.739 20.394 10.5 20.394ZM15.498 18.788C15.414 18.216 14.931 15.466 13.755 12.1C16.569 11.638 19.026 12.408 19.341 12.496C18.942 15.114 17.514 17.38 15.498 18.788Z" fill="#171717"/>
</svg>
