<svg width="24" height="25" viewBox="0 0 24 25" fill="none" xmlns="http://www.w3.org/2000/svg">
<path d="M20.4878 3.64583C18.23 1.30208 15.2195 0 12.0418 0C5.43554 0 0.0836224 5.55555 0.0836224 12.4132C0.0836224 14.5833 0.668989 16.7535 1.67247 18.5764L0 25L6.3554 23.2639C8.1115 24.2188 10.0348 24.7396 12.0418 24.7396C18.6481 24.7396 24 19.184 24 12.3264C23.9164 9.11458 22.7456 5.98958 20.4878 3.64583ZM17.8118 16.8403C17.561 17.5347 16.3902 18.2292 15.8049 18.316C15.3031 18.4028 14.6341 18.4028 13.9652 18.2292C13.547 18.0556 12.9617 17.8819 12.2927 17.5347C9.28223 16.2326 7.35889 13.1076 7.19164 12.8472C7.02439 12.6736 5.93728 11.1979 5.93728 9.63542C5.93728 8.07292 6.68989 7.37847 6.94077 7.03125C7.19164 6.68403 7.52613 6.68403 7.777 6.68403C7.94425 6.68403 8.19512 6.68403 8.36237 6.68403C8.52961 6.68403 8.78049 6.59722 9.03136 7.20486C9.28223 7.8125 9.86759 9.375 9.95122 9.46181C10.0348 9.63542 10.0348 9.80903 9.95122 9.98264C9.86759 10.1562 9.78397 10.3299 9.61672 10.5035C9.44947 10.6771 9.28223 10.9375 9.1986 11.0243C9.03135 11.1979 8.86411 11.3715 9.03136 11.6319C9.19861 11.9792 9.78397 12.934 10.7038 13.8021C11.8746 14.8437 12.7944 15.191 13.1289 15.3646C13.4634 15.5382 13.6307 15.4514 13.7979 15.2778C13.9652 15.1042 14.5505 14.4097 14.7178 14.0625C14.885 13.7153 15.1359 13.8021 15.3868 13.8889C15.6376 13.9757 17.1429 14.7569 17.3937 14.9306C17.7282 15.1042 17.8955 15.191 17.9791 15.2778C18.0627 15.5382 18.0627 16.1458 17.8118 16.8403Z" fill="black"/>
</svg>
