<svg width="62" height="62" viewBox="0 0 62 62" fill="none" xmlns="http://www.w3.org/2000/svg">
<g clip-path="url(#clip0_250_3)">
<path d="M0 13.557C0.559148 11.8109 1.8017 11.2354 3.5707 11.2452C12.589 11.2845 21.6073 11.2616 30.6256 11.2649C32.2605 11.2649 33.3167 12.0006 33.6993 13.3739C33.7999 13.7493 33.8207 14.1415 33.7605 14.5255C33.7002 14.9094 33.5603 15.2764 33.3496 15.6029C33.1389 15.9294 32.8621 16.2082 32.5371 16.4213C32.2122 16.6343 31.8461 16.777 31.4627 16.84C31.103 16.8895 30.7402 16.9124 30.3771 16.9087H5.66995V56.2942H45.0686V55.5193C45.0686 47.5081 45.0686 39.4969 45.085 31.489C45.0849 30.8287 45.2277 30.1761 45.5035 29.5761C45.7708 29.0718 46.1934 28.6669 46.7087 28.4214C47.2239 28.1758 47.8045 28.1026 48.3646 28.2126C48.9051 28.3031 49.4066 28.5518 49.8058 28.9272C50.2051 29.3026 50.4841 29.7878 50.6078 30.3217C50.6824 30.6764 50.7175 31.0383 50.7124 31.4007C50.7124 40.4997 50.7124 49.5986 50.7124 58.6976C50.7124 60.8753 49.6105 61.9675 47.4425 61.9675C32.8153 61.9675 18.1881 61.974 3.56089 61.9871C1.78862 61.9871 0.549338 61.4181 0 59.6687L0 13.557Z" fill="black"/>
<path d="M59.6817 0C61.431 0.552608 62.0131 1.78862 62 3.56089C61.9542 10.7546 61.9837 17.9222 61.9804 25.1028C61.9804 26.8162 60.9994 27.9574 59.4135 28.147C58.7127 28.2128 58.013 28.0105 57.4554 27.5809C56.8978 27.1513 56.5237 26.5264 56.4085 25.832C56.3626 25.472 56.3418 25.1092 56.3464 24.7464C56.3464 20.0051 56.3464 15.2648 56.3464 10.5257V9.65593C56.0717 9.91425 55.905 10.0679 55.7415 10.2282C46.3831 19.5843 37.0258 28.9416 27.6696 38.3C26.8326 39.1371 25.9137 39.6406 24.6941 39.3529C24.2413 39.2441 23.8229 39.0241 23.4766 38.7128C23.1303 38.4015 22.8672 38.0088 22.711 37.5701C22.5549 37.1315 22.5106 36.6608 22.5822 36.2007C22.6538 35.7406 22.8391 35.3057 23.1213 34.9353C23.3239 34.6841 23.5424 34.446 23.7752 34.2225C33.0878 24.9055 42.4026 15.5918 51.7195 6.28142C51.9062 6.13116 52.1066 5.9987 52.3179 5.88577L52.1871 5.64707H51.5037C46.7035 5.64707 41.9034 5.64707 37.1163 5.64707C36.5581 5.65757 36.0032 5.561 35.4814 5.36259C34.9758 5.16554 34.5454 4.81373 34.2518 4.35743C33.9582 3.90112 33.8163 3.36368 33.8464 2.8219C33.8291 2.27076 33.9808 1.72751 34.2812 1.26514C34.5817 0.802769 35.0165 0.443439 35.5271 0.235431C35.707 0.153684 35.8901 0.0784769 36.0732 0H59.6817Z" fill="black"/>
</g>
<defs>
<clipPath id="clip0_250_3">
<rect width="62" height="62" fill="white"/>
</clipPath>
</defs>
</svg>
