<svg width="28" height="22" viewBox="0 0 28 22" fill="none" xmlns="http://www.w3.org/2000/svg">
<path d="M28 2.67948C27 3.10255 25.8572 3.38461 24.7143 3.52564C25.8572 2.82051 26.8571 1.69231 27.2857 0.423081C26.1429 1.12821 25 1.55129 23.5714 1.83334C22.5714 0.705132 21 0 19.4286 0C16.2857 0 13.7143 2.53846 13.7143 5.64102C13.7143 6.0641 13.7143 6.48717 13.8571 6.91025C9.14286 6.62819 4.85714 4.37179 1.99999 0.987175C1.57142 1.83333 1.28571 2.82051 1.28571 3.80769C1.28571 5.78204 2.28571 7.47436 3.85714 8.46154C2.85714 8.46154 1.99999 8.17948 1.28571 7.75641C1.28571 10.4359 3.2857 12.8333 5.85713 13.2564C5.42856 13.3974 4.85714 13.3974 4.28572 13.3974C3.85714 13.3974 3.57143 13.3974 3.14285 13.2564C3.85714 15.5128 6 17.2051 8.57143 17.2051C6.57143 18.7564 4.14286 19.6025 1.42857 19.6025C1 19.6025 0.571429 19.6026 0 19.4615C2.57143 21.0128 5.57143 22 8.85714 22C19.4286 22 25.1429 13.3974 25.1429 5.92307V5.21794C26.2857 4.79487 27.2857 3.80768 28 2.67948Z" fill="black"/>
</svg>
