<svg width="60" height="76" viewBox="0 0 60 76" fill="none" xmlns="http://www.w3.org/2000/svg">
<path d="M30 73C30 73 57 54.1538 57 29.9231C57 22.7826 54.1554 15.9346 49.0919 10.8856C44.0284 5.83653 37.1608 3 30 3C22.8392 3 15.9716 5.83653 10.9081 10.8856C5.84463 15.9346 3 22.7826 3 29.9231C3 54.1538 30 73 30 73Z" stroke="#171717" stroke-width="6" stroke-linecap="round" stroke-linejoin="round"/>
<path d="M30 34C34.4183 34 38 30.6421 38 26.5C38 22.3579 34.4183 19 30 19C25.5817 19 22 22.3579 22 26.5C22 30.6421 25.5817 34 30 34Z" stroke="#171717" stroke-width="6" stroke-linecap="round" stroke-linejoin="round"/>
</svg>
